<?xml version="1.0" encoding="UTF-8" standalone="no"?><!DOCTYPE svg PUBLIC "-//W3C//DTD SVG 1.1//EN" "http://www.w3.org/Graphics/SVG/1.1/DTD/svg11.dtd"><svg width="100%" height="100%" viewBox="0 0 1233 691" version="1.1" xmlns="http://www.w3.org/2000/svg" xmlns:xlink="http://www.w3.org/1999/xlink" xml:space="preserve" xmlns:serif="http://www.serif.com/" style="fill-rule:evenodd;clip-rule:evenodd;stroke-linejoin:round;stroke-miterlimit:2;"><rect id="logo" x="0" y="0" width="1232.92" height="690.787" style="fill:none;"/><g id="psq2"><path id="letter-p" d="M136.12,626.097l-0,-159.978c12.401,25.423 44.025,42.165 82.469,42.165c80.609,-0 146.336,-72.548 146.336,-161.218c0,-89.29 -65.727,-161.218 -146.336,-161.218c-38.444,0 -70.068,16.122 -82.469,41.545l-0,-35.344l-91.15,-0l-0,434.048l91.15,0Zm66.347,-202.762c-35.964,-0 -66.347,-26.043 -66.347,-76.269c-0,-46.505 30.383,-70.688 66.347,-70.688c43.405,0 71.308,31.004 71.308,70.688c0,42.785 -27.903,76.269 -71.308,76.269Z" style="fill:#1a1a1a;fill-rule:nonzero;"/><path id="letter-s" d="M410.81,286.299c0,83.09 78.129,89.29 131.455,97.971c26.663,4.341 47.745,9.301 47.745,25.423c-0.62,9.921 -7.441,26.043 -47.125,26.043c-27.903,0.62 -48.365,-8.061 -48.365,-29.143l-82.47,-0c0,75.648 63.247,101.691 130.835,101.691c65.727,-0 139.515,-24.183 140.135,-100.451c-0.62,-72.548 -66.967,-84.33 -119.053,-93.011c-33.483,-5.58 -60.766,-9.921 -60.766,-27.903c-0,-11.781 11.161,-21.082 41.544,-21.082c29.763,0 40.305,9.301 40.305,25.423l83.089,-0c-0,-54.566 -39.064,-105.412 -130.215,-105.412c-69.447,0 -127.114,29.143 -127.114,100.451Z" style="fill:#1a1a1a;fill-rule:nonzero;"/><path id="letter-q" d="M874.002,508.284c38.444,-0 70.067,-16.742 83.089,-42.165l-0,159.978l90.53,0l-0,-434.048l-90.53,-0l-0,35.344c-13.022,-25.423 -44.645,-41.545 -83.089,-41.545c-80.609,0 -145.716,71.928 -145.716,161.218c-0,88.67 65.107,161.218 145.716,161.218Zm16.121,-231.906c35.964,0 66.968,24.183 66.968,70.688c-0,50.226 -31.004,76.269 -66.968,76.269c-43.404,-0 -71.307,-33.484 -71.307,-76.269c-0,-39.684 27.903,-70.688 71.307,-70.688Z" style="fill:#1a1a1a;fill-rule:nonzero;"/><text id="number-2" x="1093.39px" y="204.484px" style="font-family:'Qualy-Bold', 'Qualy';font-weight:700;font-size:200.068px;fill:#1a1a1a;">2</text></g></svg>