<?xml version="1.0" encoding="UTF-8" standalone="no"?><!DOCTYPE svg PUBLIC "-//W3C//DTD SVG 1.1//EN" "http://www.w3.org/Graphics/SVG/1.1/DTD/svg11.dtd"><svg width="100%" height="100%" viewBox="0 0 5138 2880" version="1.1" xmlns="http://www.w3.org/2000/svg" xmlns:xlink="http://www.w3.org/1999/xlink" xml:space="preserve" xmlns:serif="http://www.serif.com/" style="fill-rule:evenodd;clip-rule:evenodd;stroke-linejoin:round;stroke-miterlimit:2;"><rect id="logo" x="0" y="0" width="5137.17" height="2878.28" style="fill:none;"/><g id="psq2"><path id="letter-p" d="M567.167,2608.74l-0,-666.575c51.671,105.929 183.437,175.687 343.621,175.687c335.87,0 609.733,-302.283 609.733,-671.742c-0,-372.041 -273.863,-671.741 -609.734,-671.741c-160.183,-0 -291.95,67.175 -343.62,173.104l-0,-147.267l-379.792,0l-0,1808.53l379.792,-0.001Zm276.445,-844.841c-149.85,-0 -276.445,-108.513 -276.445,-317.788c-0,-193.771 126.596,-294.533 276.445,-294.533c180.855,-0 297.117,129.183 297.117,294.533c0,178.271 -116.262,317.788 -297.117,317.788Z" style="fill:#1a1a1a;fill-rule:nonzero;"/><path id="letter-s" d="M1711.71,1192.91c0,346.208 325.538,372.041 547.729,408.212c111.096,18.088 198.938,38.754 198.938,105.929c-2.583,41.338 -31.004,108.513 -196.354,108.513c-116.263,2.583 -201.521,-33.588 -201.521,-121.429l-343.625,-0c0,315.2 263.529,423.712 545.146,423.712c273.862,0 581.312,-100.762 583.896,-418.546c-2.584,-302.283 -279.029,-351.375 -496.054,-387.546c-139.513,-23.25 -253.192,-41.337 -253.192,-116.262c-0,-49.088 46.504,-87.842 173.1,-87.842c124.012,0 167.937,38.754 167.937,105.929l346.205,0c-0,-227.358 -162.767,-439.216 -542.563,-439.216c-289.362,-0 -529.642,121.429 -529.642,418.546Z" style="fill:#1a1a1a;fill-rule:nonzero;"/><path id="letter-q" d="M3641.68,2117.85c160.183,0 291.946,-69.758 346.204,-175.688l0,666.576l377.208,-0l0,-1808.53l-377.208,0l0,147.267c-54.258,-105.929 -186.021,-173.104 -346.204,-173.104c-335.871,-0 -607.15,299.7 -607.15,671.741c0,369.459 271.279,671.742 607.15,671.742Zm67.171,-966.275c149.85,0 279.033,100.763 279.033,294.533c0,209.275 -129.183,317.788 -279.033,317.788c-180.85,-0 -297.113,-139.517 -297.113,-317.788c0,-165.35 116.263,-294.533 297.113,-294.533Z" style="fill:#1a1a1a;fill-rule:nonzero;"/><path id="number-2" d="M4732.85,621.225c10.583,-10.854 22.048,-22.93 34.395,-36.226c12.346,-13.297 23.811,-27.475 34.394,-42.536c10.583,-15.06 19.403,-30.731 26.458,-47.013c7.055,-16.281 10.583,-32.563 10.583,-48.845c0,-20.894 -8.005,-38.533 -24.015,-52.915c-13.026,-14.11 -31.478,-21.166 -55.358,-21.166c-13.839,0 -25.914,2.578 -36.226,7.734c-10.312,5.156 -18.792,12.076 -25.44,20.759c-6.648,8.684 -11.669,18.792 -15.061,30.324c-3.392,11.533 -5.088,23.677 -5.088,36.43l-105.83,0c1.628,-28.764 7.123,-55.289 16.485,-79.576c9.362,-24.286 22.32,-45.181 38.873,-62.684c16.552,-17.502 36.497,-31.206 59.834,-41.111c23.337,-9.904 50.066,-14.857 80.187,-14.857c34.463,0 64.448,7.87 89.956,23.609c13.025,6.784 24.965,15.399 35.819,25.847c10.855,10.447 20.081,22.048 27.679,34.801c7.598,12.754 13.5,26.39 17.706,40.908c4.206,14.518 6.309,29.103 6.309,43.757c0,23.337 -4.002,46.266 -12.007,68.789c-8.005,22.523 -18.385,44.232 -31.139,65.127c-12.754,20.894 -26.932,40.771 -42.536,59.631c-15.603,18.859 -31.138,36.294 -46.606,52.304l-63.498,68.79l201.078,0l-0,98.097l-394.014,-0l-0,-50.473l177.062,-179.505Z" style="fill:#1a1a1a;fill-rule:nonzero;"/></g></svg>